<mxfile host="app.diagrams.net" modified="2024-01-17T10:48:40.072Z" agent="Mozilla/5.0 (Windows NT 10.0; Win64; x64) AppleWebKit/537.36 (KHTML, like Gecko) Chrome/120.0.0.0 Safari/537.36" etag="ofUrUFAw6sufcyVxkIE4" version="22.1.20" type="device">
  <diagram name="페이지-1" id="4K6bwSu-vBDwg872Qokh">
    <mxGraphModel dx="2261" dy="772" grid="1" gridSize="10" guides="1" tooltips="1" connect="1" arrows="1" fold="1" page="1" pageScale="1" pageWidth="827" pageHeight="1169" math="0" shadow="0">
      <root>
        <mxCell id="0" />
        <mxCell id="1" parent="0" />
        <mxCell id="dkVJfUGfxnGU58HfXm99-5" style="edgeStyle=orthogonalEdgeStyle;rounded=0;orthogonalLoop=1;jettySize=auto;html=1;exitX=0.5;exitY=1;exitDx=0;exitDy=0;entryX=0.5;entryY=0;entryDx=0;entryDy=0;strokeWidth=2;" edge="1" parent="1" source="dkVJfUGfxnGU58HfXm99-1" target="dkVJfUGfxnGU58HfXm99-8">
          <mxGeometry relative="1" as="geometry">
            <mxPoint x="200" y="160" as="targetPoint" />
          </mxGeometry>
        </mxCell>
        <mxCell id="dkVJfUGfxnGU58HfXm99-1" value="시간 제한&lt;br&gt;퀘스트 실패&lt;br&gt;시작" style="rounded=1;whiteSpace=wrap;html=1;arcSize=50;" vertex="1" parent="1">
          <mxGeometry x="120" y="40" width="160" height="80" as="geometry" />
        </mxCell>
        <mxCell id="dkVJfUGfxnGU58HfXm99-21" style="edgeStyle=orthogonalEdgeStyle;rounded=0;orthogonalLoop=1;jettySize=auto;html=1;exitX=0;exitY=0.5;exitDx=0;exitDy=0;strokeWidth=2;" edge="1" parent="1" source="dkVJfUGfxnGU58HfXm99-8" target="dkVJfUGfxnGU58HfXm99-20">
          <mxGeometry relative="1" as="geometry" />
        </mxCell>
        <mxCell id="dkVJfUGfxnGU58HfXm99-23" style="edgeStyle=orthogonalEdgeStyle;rounded=0;orthogonalLoop=1;jettySize=auto;html=1;exitX=1;exitY=0.5;exitDx=0;exitDy=0;entryX=0.5;entryY=0;entryDx=0;entryDy=0;strokeColor=#990000;strokeWidth=2;" edge="1" parent="1" source="dkVJfUGfxnGU58HfXm99-8" target="dkVJfUGfxnGU58HfXm99-22">
          <mxGeometry relative="1" as="geometry">
            <mxPoint x="350" y="425" as="sourcePoint" />
          </mxGeometry>
        </mxCell>
        <mxCell id="dkVJfUGfxnGU58HfXm99-8" value="시간 초과 조건 인가" style="rhombus;whiteSpace=wrap;html=1;" vertex="1" parent="1">
          <mxGeometry x="120" y="160" width="160" height="80" as="geometry" />
        </mxCell>
        <mxCell id="dkVJfUGfxnGU58HfXm99-12" value="PC의 체력이 &lt;br&gt;0이 되었는가" style="rhombus;whiteSpace=wrap;html=1;" vertex="1" parent="1">
          <mxGeometry x="580" y="170" width="160" height="80" as="geometry" />
        </mxCell>
        <mxCell id="dkVJfUGfxnGU58HfXm99-13" value="호위 대상의 체력이&lt;br&gt;n% 이하인가" style="rhombus;whiteSpace=wrap;html=1;" vertex="1" parent="1">
          <mxGeometry x="820" y="170" width="160" height="80" as="geometry" />
        </mxCell>
        <mxCell id="dkVJfUGfxnGU58HfXm99-18" style="edgeStyle=orthogonalEdgeStyle;rounded=0;orthogonalLoop=1;jettySize=auto;html=1;exitX=0.5;exitY=1;exitDx=0;exitDy=0;entryX=0.5;entryY=0;entryDx=0;entryDy=0;strokeWidth=2;" edge="1" parent="1" source="dkVJfUGfxnGU58HfXm99-16" target="dkVJfUGfxnGU58HfXm99-12">
          <mxGeometry relative="1" as="geometry" />
        </mxCell>
        <mxCell id="dkVJfUGfxnGU58HfXm99-16" value="생존 조건&lt;br&gt;퀘스트 실패&lt;br&gt;시작" style="rounded=1;whiteSpace=wrap;html=1;arcSize=50;" vertex="1" parent="1">
          <mxGeometry x="580" y="50" width="160" height="80" as="geometry" />
        </mxCell>
        <mxCell id="dkVJfUGfxnGU58HfXm99-19" style="edgeStyle=orthogonalEdgeStyle;rounded=0;orthogonalLoop=1;jettySize=auto;html=1;exitX=0.5;exitY=1;exitDx=0;exitDy=0;entryX=0.5;entryY=0;entryDx=0;entryDy=0;strokeWidth=2;" edge="1" parent="1" source="dkVJfUGfxnGU58HfXm99-17" target="dkVJfUGfxnGU58HfXm99-13">
          <mxGeometry relative="1" as="geometry" />
        </mxCell>
        <mxCell id="dkVJfUGfxnGU58HfXm99-17" value="호위 조건&lt;br&gt;퀘스트 실패&lt;br&gt;시작" style="rounded=1;whiteSpace=wrap;html=1;arcSize=50;" vertex="1" parent="1">
          <mxGeometry x="820" y="50" width="160" height="80" as="geometry" />
        </mxCell>
        <mxCell id="dkVJfUGfxnGU58HfXm99-25" style="edgeStyle=orthogonalEdgeStyle;rounded=0;orthogonalLoop=1;jettySize=auto;html=1;exitX=0.5;exitY=1;exitDx=0;exitDy=0;strokeWidth=2;strokeColor=#990000;" edge="1" parent="1" source="dkVJfUGfxnGU58HfXm99-20">
          <mxGeometry relative="1" as="geometry">
            <mxPoint x="200" y="400" as="targetPoint" />
          </mxGeometry>
        </mxCell>
        <mxCell id="dkVJfUGfxnGU58HfXm99-29" style="edgeStyle=orthogonalEdgeStyle;rounded=0;orthogonalLoop=1;jettySize=auto;html=1;exitX=0;exitY=0.5;exitDx=0;exitDy=0;entryX=0;entryY=0.5;entryDx=0;entryDy=0;strokeWidth=2;" edge="1" parent="1" source="dkVJfUGfxnGU58HfXm99-20" target="dkVJfUGfxnGU58HfXm99-28">
          <mxGeometry relative="1" as="geometry" />
        </mxCell>
        <mxCell id="dkVJfUGfxnGU58HfXm99-20" value="시간의 초과 했는가" style="rhombus;whiteSpace=wrap;html=1;" vertex="1" parent="1">
          <mxGeometry y="240" width="160" height="80" as="geometry" />
        </mxCell>
        <mxCell id="dkVJfUGfxnGU58HfXm99-26" style="edgeStyle=orthogonalEdgeStyle;rounded=0;orthogonalLoop=1;jettySize=auto;html=1;exitX=0.5;exitY=1;exitDx=0;exitDy=0;entryX=0.5;entryY=0;entryDx=0;entryDy=0;strokeWidth=2;strokeColor=#990000;" edge="1" parent="1" source="dkVJfUGfxnGU58HfXm99-22">
          <mxGeometry relative="1" as="geometry">
            <mxPoint x="200" y="400" as="targetPoint" />
          </mxGeometry>
        </mxCell>
        <mxCell id="dkVJfUGfxnGU58HfXm99-30" style="edgeStyle=orthogonalEdgeStyle;rounded=0;orthogonalLoop=1;jettySize=auto;html=1;exitX=1;exitY=0.5;exitDx=0;exitDy=0;entryX=1;entryY=0.5;entryDx=0;entryDy=0;strokeWidth=2;" edge="1" parent="1" source="dkVJfUGfxnGU58HfXm99-22" target="dkVJfUGfxnGU58HfXm99-28">
          <mxGeometry relative="1" as="geometry" />
        </mxCell>
        <mxCell id="dkVJfUGfxnGU58HfXm99-22" value="시간 이하 인가" style="rhombus;whiteSpace=wrap;html=1;" vertex="1" parent="1">
          <mxGeometry x="240" y="240" width="160" height="80" as="geometry" />
        </mxCell>
        <mxCell id="dkVJfUGfxnGU58HfXm99-27" value="종료" style="ellipse;whiteSpace=wrap;html=1;" vertex="1" parent="1">
          <mxGeometry x="160" y="400" width="80" height="80" as="geometry" />
        </mxCell>
        <mxCell id="dkVJfUGfxnGU58HfXm99-28" value="퀘스트 실패 종료" style="rounded=1;whiteSpace=wrap;html=1;arcSize=50;" vertex="1" parent="1">
          <mxGeometry x="120" y="520" width="160" height="80" as="geometry" />
        </mxCell>
      </root>
    </mxGraphModel>
  </diagram>
</mxfile>
